<svg xmlns="http://www.w3.org/2000/svg" viewBox="0 0 900 900" role="img" aria-label="Imagem institucional de acolhimento">
  <defs>
    <linearGradient id="fundo" x1="0" y1="0" x2="1" y2="1">
      <stop offset="0" stop-color="#fff4fa"/>
      <stop offset="1" stop-color="#f8d3e5"/>
    </linearGradient>
    <linearGradient id="rosa" x1="0" y1="0" x2="1" y2="1">
      <stop offset="0" stop-color="#d81b73"/>
      <stop offset="1" stop-color="#a01557"/>
    </linearGradient>
  </defs>
  <rect width="900" height="900" rx="56" fill="url(#fundo)"/>
  <circle cx="708" cy="188" r="92" fill="#ffdceB"/>
  <circle cx="164" cy="710" r="118" fill="#ffe8f2"/>
  <path d="M450 654C450 654 260 536 260 390C260 292 312 242 386 242C421 242 444 259 450 293C456 259 479 242 514 242C588 242 640 292 640 390C640 536 450 654 450 654Z" fill="url(#rosa)"/>
  <path d="M226 512C226 512 176 462 132 512C87 562 114 648 185 675C230 692 272 661 270 610" fill="none" stroke="#d81b73" stroke-width="22" stroke-linecap="round"/>
  <path d="M674 512C674 512 724 462 768 512C813 562 786 648 715 675C670 692 628 661 630 610" fill="none" stroke="#d81b73" stroke-width="22" stroke-linecap="round"/>
  <path d="M230 742C230 742 450 782 670 742" fill="none" stroke="#a01557" stroke-width="18" stroke-linecap="round"/>
  <circle cx="384" cy="366" r="22" fill="#fff"/>
  <circle cx="516" cy="366" r="22" fill="#fff"/>
  <path d="M390 456C422 484 478 484 510 456" fill="none" stroke="#fff" stroke-width="18" stroke-linecap="round"/>
</svg>
