<svg xmlns="http://www.w3.org/2000/svg" viewBox="0 0 320 320" role="img" aria-label="QR Code PIX">
  <rect width="320" height="320" rx="18" fill="#ffffff"/>
  <rect x="14" y="14" width="292" height="292" rx="12" fill="#ffffff" stroke="#e5e7eb" stroke-width="8"/>
  <g fill="#111827">
    <rect x="42" y="42" width="72" height="72" rx="6"/>
    <rect x="58" y="58" width="40" height="40" rx="4" fill="#ffffff"/>
    <rect x="70" y="70" width="16" height="16" rx="2"/>
    <rect x="206" y="42" width="72" height="72" rx="6"/>
    <rect x="222" y="58" width="40" height="40" rx="4" fill="#ffffff"/>
    <rect x="234" y="70" width="16" height="16" rx="2"/>
    <rect x="42" y="206" width="72" height="72" rx="6"/>
    <rect x="58" y="222" width="40" height="40" rx="4" fill="#ffffff"/>
    <rect x="70" y="234" width="16" height="16" rx="2"/>
    <rect x="142" y="46" width="18" height="18"/>
    <rect x="164" y="46" width="18" height="18"/>
    <rect x="142" y="78" width="18" height="18"/>
    <rect x="176" y="98" width="18" height="18"/>
    <rect x="132" y="132" width="18" height="18"/>
    <rect x="164" y="132" width="18" height="18"/>
    <rect x="196" y="132" width="18" height="18"/>
    <rect x="228" y="132" width="18" height="18"/>
    <rect x="260" y="132" width="18" height="18"/>
    <rect x="132" y="164" width="18" height="18"/>
    <rect x="196" y="164" width="18" height="18"/>
    <rect x="244" y="164" width="18" height="18"/>
    <rect x="132" y="196" width="18" height="18"/>
    <rect x="164" y="196" width="18" height="18"/>
    <rect x="212" y="196" width="18" height="18"/>
    <rect x="244" y="196" width="18" height="18"/>
    <rect x="132" y="228" width="18" height="18"/>
    <rect x="180" y="228" width="18" height="18"/>
    <rect x="212" y="228" width="18" height="18"/>
    <rect x="260" y="228" width="18" height="18"/>
    <rect x="132" y="260" width="18" height="18"/>
    <rect x="164" y="260" width="18" height="18"/>
    <rect x="196" y="260" width="18" height="18"/>
    <rect x="244" y="260" width="18" height="18"/>
  </g>
  <text x="160" y="158" text-anchor="middle" font-family="Arial, sans-serif" font-size="28" font-weight="700" fill="#d81b73">PIX</text>
</svg>
